<svg width="13" height="22" viewBox="0 0 13 22" fill="none" xmlns="http://www.w3.org/2000/svg">
<path fill-rule="evenodd" clip-rule="evenodd" d="M11.1415 0H1.3255C0.594731 0 0 0.59473 0 1.3255V2.56664V17.9666V20.6745C0 21.4053 0.594731 22 1.3255 22H11.1412C11.8719 22 12.4667 21.4053 12.4667 20.6749V17.9675C12.4667 17.9672 12.4667 17.9669 12.4667 17.9666V2.56664C12.4667 2.56636 12.4667 2.56607 12.4667 2.56579V1.3255C12.4667 0.59473 11.872 0 11.1415 0ZM11.7333 2.19999V1.3255C11.7333 0.999195 11.4678 0.733348 11.1412 0.733348H1.3255C0.998809 0.733348 0.733348 0.999152 0.733348 1.3255V2.19999H11.7333ZM0.733348 17.6V2.93333H11.7333V17.6H0.733348ZM0.733348 18.3333V20.6748C0.733348 21.0008 0.998809 21.2667 1.3255 21.2667H11.1415C11.4679 21.2667 11.7333 21.0008 11.7333 20.6745H11.7333V18.3333H0.733348ZM8.0667 1.10003H4.40005C4.19766 1.10003 4.03339 1.2643 4.03339 1.46668C4.03339 1.66906 4.19766 1.83333 4.40005 1.83333H8.0667C8.26908 1.83333 8.43335 1.66906 8.43335 1.46668C8.43335 1.2643 8.26908 1.10003 8.0667 1.10003ZM10.6333 1.10003H10.2666C10.0642 1.10003 9.89997 1.2643 9.89997 1.46668C9.89997 1.66906 10.0642 1.83333 10.2666 1.83333H10.6333C10.8357 1.83333 10.9999 1.66906 10.9999 1.46668C10.9999 1.2643 10.8357 1.10003 10.6333 1.10003ZM5.77831 18.7H6.68873C7.24608 18.7 7.7 19.1539 7.7 19.7116V19.8887C7.7 20.4464 7.24608 20.9 6.68839 20.9H5.77797C5.22062 20.9 4.7667 20.4464 4.7667 19.8887V19.7116C4.7667 19.1539 5.22062 18.7 5.77831 18.7ZM6.68877 20.1666C6.84204 20.1666 6.9667 20.042 6.9667 19.8887V19.7116C6.9667 19.5579 6.84204 19.4333 6.68839 19.4333H5.77831C5.62465 19.4333 5.5 19.558 5.5 19.7116V19.8887C5.5 20.042 5.6247 20.1666 5.77831 20.1666H6.68877Z" fill="#666666"/>
</svg>
