<svg width="18" height="14" viewBox="0 0 18 14" fill="none" xmlns="http://www.w3.org/2000/svg">
<path fill-rule="evenodd" clip-rule="evenodd" d="M0.527344 0.144531H17.4727C17.7639 0.144531 18 0.380615 18 0.671875V13.3281C18 13.6194 17.7639 13.8555 17.4727 13.8555H0.527344C0.236084 13.8555 0 13.6194 0 13.3281V0.671875C0 0.380615 0.236084 0.144531 0.527344 0.144531ZM4.25391 2.25391H16.9453V1.19922H4.25391V2.25391ZM3.19922 2.25391V1.19922H1.05469V2.25391H3.19922ZM1.05469 3.30859V12.8008H16.9453V3.30859H1.05469ZM2.14453 5.94531C2.14453 5.65405 2.38062 5.41797 2.67188 5.41797C2.96313 5.41797 3.19922 5.65405 3.19922 5.94531V10.1641C3.19922 10.4553 2.96313 10.6914 2.67188 10.6914C2.38062 10.6914 2.14453 10.4553 2.14453 10.1641V5.94531ZM9 5.41797C8.70874 5.41797 8.47266 5.65405 8.47266 5.94531V10.1641C8.47266 10.4553 8.70874 10.6914 9 10.6914C9.29126 10.6914 9.52734 10.4553 9.52734 10.1641V5.94531C9.52734 5.65405 9.29126 5.41797 9 5.41797ZM10.582 5.94531C10.582 5.65405 10.8181 5.41797 11.1094 5.41797C11.4006 5.41797 11.6367 5.65405 11.6367 5.94531V10.1641C11.6367 10.4553 11.4006 10.6914 11.1094 10.6914C10.8181 10.6914 10.582 10.4553 10.582 10.1641V5.94531ZM5.83594 5.41797C4.96362 5.41797 4.25391 6.12769 4.25391 7V9.10938C4.25391 9.98169 4.96362 10.6914 5.83594 10.6914C6.70825 10.6914 7.41797 9.98169 7.41797 9.10938V7C7.41797 6.12769 6.70825 5.41797 5.83594 5.41797ZM6.36328 9.10938C6.36328 9.40009 6.12665 9.63672 5.83594 9.63672C5.54523 9.63672 5.30859 9.40009 5.30859 9.10938V7C5.30859 6.70929 5.54523 6.47266 5.83594 6.47266C6.12665 6.47266 6.36328 6.70929 6.36328 7V9.10938ZM12.6914 7C12.6914 6.12769 13.4011 5.41797 14.2734 5.41797C15.1458 5.41797 15.8555 6.12769 15.8555 7V9.10938C15.8555 9.98169 15.1458 10.6914 14.2734 10.6914C13.4011 10.6914 12.6914 9.98169 12.6914 9.10938V7ZM14.2734 9.63672C14.5641 9.63672 14.8008 9.40009 14.8008 9.10938V7C14.8008 6.70929 14.5641 6.47266 14.2734 6.47266C13.9827 6.47266 13.7461 6.70929 13.7461 7V9.10938C13.7461 9.40009 13.9827 9.63672 14.2734 9.63672Z" fill="#666666"/>
</svg>
