<svg width="16" height="18" viewBox="0 0 16 18" fill="none" xmlns="http://www.w3.org/2000/svg">
<path fill-rule="evenodd" clip-rule="evenodd" d="M3.16406 4.74609C3.16406 2.1291 5.29316 0 7.91016 0C10.5272 0 12.6562 2.1291 12.6562 4.74609C12.6562 7.36309 10.5272 9.49219 7.91016 9.49219C5.29316 9.49219 3.16406 7.36309 3.16406 4.74609ZM4.21875 4.74609C4.21875 6.78154 5.87471 8.4375 7.91016 8.4375C9.9456 8.4375 11.6016 6.78154 11.6016 4.74609C11.6016 2.71065 9.9456 1.05469 7.91016 1.05469C5.87471 1.05469 4.21875 2.71065 4.21875 4.74609ZM6.43943 10.582H9.38085C11.8168 10.582 14.2171 11.7088 15.8203 14.1138V18H0V14.1138C1.60555 11.7053 4.00655 10.582 6.43943 10.582ZM14.7656 16.9453H14.7657V14.4365C13.5341 12.6803 11.533 11.6367 9.38088 11.6367H6.43947C4.28738 11.6367 2.28625 12.6803 1.05469 14.4365V16.9453H14.7656Z" fill="#666666"/>
</svg>
